<svg xmlns="http://www.w3.org/2000/svg" viewBox="0 0 128 128"><rect width="128" height="128" x="0" y="0" fill="#282c34" ry="16"/><path fill="#e5c07b" d="m28.7 55.8 3.7-44.4H38l-3.7 44.4zM10.9 44.5v-5.3H42v5.3zM15 55.8l3.7-44.4h5.5l-3.7 44.4zM10.9 28v-5.3H42V28z"/><path fill="#98c379" d="m108.6 47.7-8.8-12.2 3.5-3 10.5 10.8zm-14.2 0-5.2-4.4 10.5-10.8 3.5 3zm6.3-11.5-14.5-4.1 2.4-6.4 13.7 6.1zM99.2 34l-1-15h6.7l-1 15zm3.1 2.2-1.6-4.4 13.7-6 2.3 6.3z"/><path fill="#61afef" d="m98.8 72.3-4 4 7.3 7.4H10.9v5.8h96.8l4.5 4.7v.5l-4.5 4.6H11v5.9H102l-7.3 7.4 4 4 19.5-20.3v-3.8z"/></svg>